Coordinates
version=1
nRows=6
nColumns=34
inDegrees=yes

Units are S.I. units (second, meters, Newtons, ...)
If the header above contains a line with 'inDegrees', this indicates whether rotational values are in degrees (yes) or radians (no).

endheader
time	pelvis_tilt	pelvis_list	pelvis_rotation	pelvis_tx	pelvis_ty	pelvis_tz	hip_flexion_r	hip_adduction_r	hip_rotation_r	knee_angle_r	ankle_angle_r	subtalar_angle_r	mtp_angle_r	hip_flexion_l	hip_adduction_l	hip_rotation_l	knee_angle_l	ankle_angle_l	subtalar_angle_l	mtp_angle_l	lumbar_extension	lumbar_bending	lumbar_rotation	arm_flex_r	arm_add_r	arm_rot_r	elbow_flex_r	pro_sup_r	arm_flex_l	arm_add_l	arm_rot_l	elbow_flex_l	pro_sup_l
      0.00000000	     -1.31537530	     -1.27749923	     -4.37727026	      0.43923537	      0.97619083	     -0.08873889	     -4.05398855	     -5.31357787	     -5.41918290	      2.48560574	      3.01430873	     -9.25238500	      0.00000000	     -4.21457223	     -6.38386309	     -7.60590312	      2.71801003	      6.87950601	     -7.16178539	      0.00000000	      1.60670327	      0.36265851	      2.35868014	     44.92042738	     12.60746981	     62.64746279	    123.08262582	    111.93523369	     29.66442863	      6.86977484	     37.04924440	    118.78534760	     99.93645418
      0.01666670	     -0.80682606	     -1.34509200	     -4.33267489	      0.43849184	      0.97136485	     -0.08788995	     -5.15419577	     -4.91697106	     -5.84322973	      1.57729512	      5.42453414	     -6.43574370	      0.00000000	     -4.88887318	     -6.38769959	     -8.67439156	      1.78810085	      7.15953251	     -6.01314794	      0.00000000	      1.17445463	      0.88742901	      2.93056067	     48.84179359	     12.68018551	     64.53451428	    124.50239317	    111.66370170	     31.41468892	      7.38215113	     37.62694923	    119.26324732	    100.09178798
      0.03333330	     -1.40662071	     -1.03156705	     -4.31039307	      0.44067656	      0.97000274	     -0.08791739	     -4.67531496	     -5.15223029	     -6.86619525	      1.31156663	      5.45417784	     -6.59629087	      0.00000000	     -4.18505444	     -6.10110631	     -9.11334620	      1.75895686	      7.67067169	     -4.71124801	      0.00000000	      1.84675024	      0.26878895	      2.74195900	     49.31781665	     13.36378754	     64.93285350	    125.86254776	    111.62025965	     31.75554033	      6.75895014	     38.74959519	    120.80077755	     99.90801509
      0.05000000	     -1.42750589	     -0.81122454	     -4.39291841	      0.43904810	      0.96377470	     -0.08927569	     -4.53476985	     -5.61229661	     -7.01830172	      1.33317998	      6.10116479	     -6.53466284	      0.00000000	     -4.49355037	     -5.79712772	     -9.48473523	      1.00062421	      8.04489048	     -3.55136990	      0.00000000	      1.82258919	      0.30006704	      3.00483062	     49.92003000	     13.63662212	     65.81016368	    126.05395402	    111.59316787	     32.70549250	      6.56925154	     40.44999832	    119.74971922	     99.19974808
      0.06666670	     -1.72155848	     -0.74684531	     -4.25462940	      0.44105273	      0.97113431	     -0.08848371	     -4.33409725	     -5.68254217	     -7.30206898	      1.25045502	      6.28394129	     -6.53165306	      0.00000000	     -4.56060651	     -5.73110988	     -9.59542587	      0.33193679	      7.86834561	     -2.58412964	      0.00000000	      2.32458302	      0.23719907	      3.44327424	     49.36939475	     13.03564015	     67.04245379	    125.95928119	    111.56037056	     32.61388897	      6.54452731	     41.44414127	    117.67961591	     97.92790974
      0.08333330	     -1.79052318	     -0.78445690	     -4.19815206	      0.44110655	      0.97067592	     -0.08704501	     -4.25861305	     -5.59848333	     -7.34489533	      1.33394985	      6.33882269	     -6.60440294	      0.00000000	     -4.71201333	     -5.74124833	     -9.40734920	      0.09440566	      7.71257550	     -2.34311280	      0.00000000	      2.10892861	      0.27596368	      3.53531174	     48.93991103	     12.61947697	     67.32752054	    125.76495574	    111.56436635	     32.22878374	      6.21142894	     41.59952153	    117.45257683	     97.79390046
